<?xml version="1.0" encoding="utf-8"?>
<!-- Generator: Adobe Illustrator 15.1.0, SVG Export Plug-In . SVG Version: 6.00 Build 0)  -->
<!DOCTYPE svg PUBLIC "-//W3C//DTD SVG 1.1//EN" "http://www.w3.org/Graphics/SVG/1.1/DTD/svg11.dtd">
<svg version="1.1" id="Layer_1" xmlns="http://www.w3.org/2000/svg" xmlns:xlink="http://www.w3.org/1999/xlink" x="0px" y="0px"
	 width="586.232px" height="226.771px" viewBox="0 0 586.232 226.771" enable-background="new 0 0 586.232 226.771"
	 xml:space="preserve">
<path fill="#3FA9F5" fill-opacity="0.34" d="M65.823,52.471c0,27.987,27.879,83.893,51,99.666c10.218,6.971,35.649,12.672,48,12
	c13.217-0.72,40.315-8.968,49.667-18.334c17.484-17.517,33-68.585,33-93.332"/>
<g>
	<g>
		<line fill="none" stroke="#000000" stroke-miterlimit="10" x1="53.823" y1="197.803" x2="53.823" y2="34.172"/>
		<g>
			<path d="M53.823,28.137c1.054,2.84,2.852,6.362,4.756,8.547l-4.756-1.721l-4.755,1.721C50.973,34.5,52.771,30.977,53.823,28.137z
				"/>
		</g>
	</g>
</g>
<g>
	<g>
		<line fill="none" stroke="#000000" stroke-miterlimit="10" x1="28.156" y1="180.803" x2="258.788" y2="180.803"/>
		<g>
			<path d="M264.823,180.803c-2.841,1.054-6.363,2.852-8.548,4.756l1.721-4.756l-1.721-4.756
				C258.46,177.952,261.982,179.75,264.823,180.803z"/>
		</g>
	</g>
</g>
<g>
	<g>
		<defs>
			<rect id="SVGID_1_" x="86.481" y="184.562" width="16" height="16"/>
		</defs>
		<clipPath id="SVGID_2_">
			<use xlink:href="#SVGID_1_"  overflow="visible"/>
		</clipPath>
		<path clip-path="url(#SVGID_2_)" d="M95.642,187.303c-0.267,0.213-0.799,0.639-0.799,0.959c0,0.157,0.159,0.317,0.319,0.317
			c0.16,0,0.267-0.104,0.319-0.213c0.213-0.266,0.586-0.691,1.278-1.063c0.106-0.054,0.267-0.107,0.267-0.32
			c0-0.16-0.106-0.213-0.214-0.318c-0.372-0.215-0.532-0.533-0.691-0.906c0-0.159-0.054-0.319-0.32-0.319
			c-0.213,0-0.319,0.16-0.319,0.319c0,0.054,0.16,0.587,0.426,0.906H90.53c-0.267,0-0.533,0-0.533,0.318
			c0,0.32,0.267,0.32,0.533,0.32H95.642"/>
	</g>
	<g>
		<defs>
			<rect id="SVGID_3_" x="86.481" y="184.562" width="16" height="16"/>
		</defs>
		<clipPath id="SVGID_4_">
			<use xlink:href="#SVGID_3_"  overflow="visible"/>
		</clipPath>
		<path clip-path="url(#SVGID_4_)" d="M92.605,191.988c0.054-0.426,0.427-1.916,1.545-1.916c0.106,0,0.479,0,0.799,0.213
			c-0.426,0.105-0.746,0.479-0.746,0.853c0,0.266,0.16,0.586,0.586,0.586c0.373,0,0.853-0.32,0.853-0.959
			c0-0.8-0.905-1.013-1.438-1.013c-0.958,0-1.491,0.853-1.704,1.172c-0.372-1.012-1.225-1.172-1.704-1.172
			c-1.65,0-2.556,2.023-2.556,2.449c0,0.16,0.159,0.16,0.159,0.16c0.16,0,0.213-0.053,0.213-0.213
			c0.586-1.65,1.598-2.076,2.131-2.076c0.319,0,0.852,0.158,0.852,1.064c0,0.532-0.266,1.598-0.852,3.78
			c-0.213,1.013-0.799,1.65-1.491,1.65c-0.106,0-0.479,0-0.799-0.213c0.426-0.054,0.745-0.373,0.745-0.853
			c0-0.426-0.319-0.532-0.586-0.532c-0.479,0-0.852,0.426-0.852,0.905c0,0.744,0.799,1.064,1.491,1.064
			c1.012,0,1.598-1.119,1.65-1.226c0.213,0.586,0.746,1.226,1.704,1.226c1.651,0,2.557-2.076,2.557-2.449
			c0-0.16-0.16-0.16-0.213-0.16c-0.106,0-0.16,0.053-0.16,0.16c-0.532,1.703-1.65,2.076-2.13,2.076c-0.64,0-0.905-0.479-0.905-1.012
			c0-0.373,0.106-0.691,0.319-1.438L92.605,191.988"/>
	</g>
	<g>
		<defs>
			<rect id="SVGID_5_" x="86.481" y="184.562" width="16" height="16"/>
		</defs>
		<clipPath id="SVGID_6_">
			<use xlink:href="#SVGID_5_"  overflow="visible"/>
		</clipPath>
		<path clip-path="url(#SVGID_6_)" d="M100.062,191.988c0-0.318,0-0.318-0.319-0.318c-0.746,0.691-1.758,0.691-2.237,0.691v0.426
			c0.267,0,1.013,0,1.651-0.317v5.75c0,0.372,0,0.532-1.118,0.532h-0.427v0.427c0.16-0.054,1.598-0.054,1.971-0.054
			s1.811,0,2.024,0.054v-0.427h-0.427c-1.118,0-1.118-0.16-1.118-0.532V191.988"/>
	</g>
	<g>
		<defs>
			<rect id="SVGID_7_" x="86.481" y="184.562" width="16" height="16"/>
		</defs>
		<clipPath id="SVGID_8_">
			<use xlink:href="#SVGID_7_"  overflow="visible"/>
		</clipPath>
		<path clip-path="url(#SVGID_8_)" fill="none" d="M94.47,192.574L94.47,192.574z"/>
	</g>
</g>
<polygon fill="none" stroke="#000000" stroke-width="1.000000e-06" stroke-miterlimit="10" stroke-opacity="0" points="
	93.438,193.967 93.438,193.967 93.438,193.967 93.438,193.967 93.438,193.967 93.438,193.967 93.438,193.967 93.438,193.967 
	93.438,193.967 93.438,193.967 93.438,193.967 93.438,193.967 93.438,193.967 93.438,193.967 93.438,193.967 93.438,193.967 
	93.438,193.967 93.438,193.967 93.438,193.967 93.438,193.967 93.438,193.967 93.438,193.967 93.438,193.967 93.438,193.967 
	93.438,193.967 93.438,193.967 93.438,193.967 93.438,193.967 93.438,193.967 93.438,193.967 93.438,193.967 93.438,193.967 
	93.438,193.967 93.438,193.967 93.438,193.967 93.438,193.967 93.438,193.967 93.438,193.967 93.438,193.967 93.438,193.967 
	93.438,193.967 93.438,193.967 93.438,193.967 93.438,193.967 93.438,193.967 93.438,193.967 93.438,193.967 93.438,193.967 
	93.438,193.967 93.438,193.967 93.438,193.967 93.438,193.967 93.438,193.967 93.438,193.967 93.438,193.967 93.438,193.967 
	93.438,193.967 93.438,193.967 93.438,193.967 93.438,193.967 93.438,193.967 93.438,193.967 93.438,193.967 93.438,193.967 
	93.438,193.967 93.438,193.967 93.438,193.967 93.438,193.967 93.438,193.967 93.438,193.967 93.438,193.967 93.438,193.967 
	93.438,193.967 93.438,193.967 93.438,193.967 93.438,193.967 93.438,193.967 93.438,193.967 93.438,193.967 93.438,193.967 
	93.438,193.967 93.438,193.967 93.438,193.967 93.438,193.967 93.438,193.967 "/>
<g>
	<g>
		<defs>
			<rect id="SVGID_9_" x="191.867" y="184.562" width="16" height="16"/>
		</defs>
		<clipPath id="SVGID_10_">
			<use xlink:href="#SVGID_9_"  overflow="visible"/>
		</clipPath>
		<path clip-path="url(#SVGID_10_)" d="M201.027,187.303c-0.268,0.213-0.799,0.639-0.799,0.959c0,0.157,0.158,0.317,0.318,0.317
			s0.268-0.104,0.319-0.213c0.213-0.266,0.586-0.691,1.278-1.063c0.105-0.054,0.267-0.107,0.267-0.32
			c0-0.16-0.106-0.213-0.214-0.318c-0.372-0.215-0.532-0.533-0.691-0.906c0-0.159-0.054-0.319-0.32-0.319
			c-0.213,0-0.318,0.16-0.318,0.319c0,0.054,0.16,0.587,0.426,0.906h-5.378c-0.267,0-0.533,0-0.533,0.318
			c0,0.32,0.267,0.32,0.533,0.32H201.027"/>
	</g>
	<g>
		<defs>
			<rect id="SVGID_11_" x="191.867" y="184.562" width="16" height="16"/>
		</defs>
		<clipPath id="SVGID_12_">
			<use xlink:href="#SVGID_11_"  overflow="visible"/>
		</clipPath>
		<path clip-path="url(#SVGID_12_)" d="M197.991,191.988c0.054-0.426,0.427-1.916,1.545-1.916c0.106,0,0.479,0,0.799,0.213
			c-0.426,0.105-0.746,0.479-0.746,0.853c0,0.266,0.16,0.586,0.586,0.586c0.373,0,0.853-0.32,0.853-0.959
			c0-0.8-0.904-1.013-1.438-1.013c-0.958,0-1.49,0.853-1.704,1.172c-0.372-1.012-1.225-1.172-1.704-1.172
			c-1.649,0-2.556,2.023-2.556,2.449c0,0.16,0.159,0.16,0.159,0.16c0.16,0,0.213-0.053,0.213-0.213
			c0.586-1.65,1.598-2.076,2.131-2.076c0.318,0,0.852,0.158,0.852,1.064c0,0.532-0.266,1.598-0.852,3.78
			c-0.213,1.013-0.799,1.65-1.49,1.65c-0.106,0-0.479,0-0.8-0.213c0.427-0.054,0.745-0.373,0.745-0.853
			c0-0.426-0.318-0.532-0.586-0.532c-0.479,0-0.852,0.426-0.852,0.905c0,0.744,0.799,1.064,1.49,1.064
			c1.012,0,1.598-1.119,1.65-1.226c0.213,0.586,0.746,1.226,1.704,1.226c1.651,0,2.557-2.076,2.557-2.449
			c0-0.16-0.159-0.16-0.213-0.16c-0.106,0-0.16,0.053-0.16,0.16c-0.532,1.703-1.649,2.076-2.13,2.076
			c-0.641,0-0.904-0.479-0.904-1.012c0-0.373,0.105-0.691,0.318-1.438L197.991,191.988"/>
	</g>
	<g>
		<defs>
			<rect id="SVGID_13_" x="191.867" y="184.562" width="16" height="16"/>
		</defs>
		<clipPath id="SVGID_14_">
			<use xlink:href="#SVGID_13_"  overflow="visible"/>
		</clipPath>
		<path clip-path="url(#SVGID_14_)" d="M207.363,197.102h-0.371c-0.055,0.266-0.16,0.903-0.32,1.012
			c-0.053,0.104-0.958,0.104-1.117,0.104h-2.078c1.227-1.063,1.599-1.385,2.291-1.915c0.853-0.693,1.598-1.386,1.598-2.449
			c0-1.386-1.172-2.185-2.609-2.185s-2.396,0.957-2.396,2.023c0,0.586,0.533,0.639,0.64,0.639c0.267,0,0.586-0.213,0.586-0.639
			c0-0.16-0.106-0.586-0.692-0.586c0.373-0.799,1.119-1.064,1.651-1.064c1.172,0,1.757,0.904,1.757,1.812
			c0,1.012-0.744,1.756-1.064,2.184l-2.715,2.662c-0.16,0.105-0.16,0.16-0.16,0.479h4.687L207.363,197.102"/>
	</g>
	<g>
		<defs>
			<rect id="SVGID_15_" x="191.867" y="184.562" width="16" height="16"/>
		</defs>
		<clipPath id="SVGID_16_">
			<use xlink:href="#SVGID_15_"  overflow="visible"/>
		</clipPath>
		<path clip-path="url(#SVGID_16_)" fill="none" d="M199.855,192.574L199.855,192.574z"/>
	</g>
</g>
<polygon fill="none" stroke="#000000" stroke-width="1.000000e-06" stroke-miterlimit="10" stroke-opacity="0" points="
	182.823,201.803 182.823,201.803 182.823,201.803 182.823,201.803 182.823,201.803 182.823,201.803 182.823,201.803 
	182.823,201.803 182.823,201.803 182.823,201.803 182.823,201.803 182.823,201.803 182.823,201.803 182.823,201.803 
	182.823,201.803 182.823,201.803 182.823,201.803 182.823,201.803 182.823,201.803 182.823,201.803 182.823,201.803 
	182.823,201.803 182.823,201.803 182.823,201.803 182.823,201.803 182.823,201.803 182.823,201.803 182.823,201.803 
	182.823,201.803 182.823,201.803 182.823,201.803 182.823,201.803 182.823,201.803 182.823,201.803 182.823,201.803 
	182.823,201.803 182.823,201.803 182.823,201.803 182.823,201.803 182.823,201.803 182.823,201.803 182.823,201.803 
	182.823,201.803 182.823,201.803 182.823,201.803 182.823,201.803 182.823,201.803 182.823,201.803 182.823,201.803 
	182.823,201.803 182.823,201.803 182.823,201.803 182.823,201.803 182.823,201.803 182.823,201.803 182.823,201.803 
	182.823,201.803 182.823,201.803 182.823,201.803 182.823,201.803 182.823,201.803 182.823,201.803 182.823,201.803 
	182.823,201.803 182.823,201.803 182.823,201.803 182.823,201.803 182.823,201.803 182.823,201.803 182.823,201.803 
	182.823,201.803 182.823,201.803 182.823,201.803 182.823,201.803 182.823,201.803 182.823,201.803 182.823,201.803 
	182.823,201.803 182.823,201.803 182.823,201.803 182.823,201.803 182.823,201.803 182.823,201.803 182.823,201.803 
	182.823,201.803 "/>
<path fill="none" stroke="#000000" stroke-miterlimit="10" d="M65.823,52.471c0,27.987,27.879,83.893,51,99.666
	c10.218,6.971,35.649,12.672,48,12c13.217-0.72,40.315-8.968,49.667-18.334c17.484-17.517,33-68.585,33-93.332"/>
<g>
	<g>
		<line fill="none" stroke="#000000" stroke-miterlimit="10" x1="93.823" y1="181.803" x2="93.823" y2="180.803"/>
		
			<line fill="none" stroke="#000000" stroke-miterlimit="10" stroke-dasharray="1.9649,1.9649" x1="93.823" y1="178.838" x2="93.823" y2="69.785"/>
		<line fill="none" stroke="#000000" stroke-miterlimit="10" x1="93.823" y1="68.803" x2="93.823" y2="67.803"/>
	</g>
</g>
<g>
	<g>
		<line fill="none" stroke="#000000" stroke-miterlimit="10" x1="199.823" y1="181.803" x2="199.823" y2="180.803"/>
		
			<line fill="none" stroke="#000000" stroke-miterlimit="10" stroke-dasharray="1.9649,1.9649" x1="199.823" y1="178.838" x2="199.823" y2="69.785"/>
		<line fill="none" stroke="#000000" stroke-miterlimit="10" x1="199.823" y1="68.803" x2="199.823" y2="67.803"/>
	</g>
</g>
<line fill="none" stroke="#191F84" stroke-miterlimit="10" x1="93.823" y1="126.258" x2="199.823" y2="154.801"/>
<polygon fill="none" stroke="#000000" stroke-width="1.000000e-06" stroke-miterlimit="10" stroke-opacity="0" points="
	18.358,96.031 18.358,96.031 18.358,96.031 18.358,96.031 18.358,96.031 18.358,96.031 18.358,96.031 18.358,96.031 18.358,96.031 
	18.358,96.031 18.358,96.031 18.358,96.031 18.358,96.031 18.358,96.031 18.358,96.031 18.358,96.031 18.358,96.031 18.358,96.031 
	18.358,96.031 18.358,96.031 18.358,96.031 18.358,96.031 18.358,96.031 18.358,96.031 18.358,96.031 18.358,96.031 18.358,96.031 
	18.358,96.031 18.358,96.031 18.358,96.031 18.358,96.031 18.358,96.031 18.358,96.031 18.358,96.031 18.358,96.031 18.358,96.031 
	18.358,96.031 18.358,96.031 18.358,96.031 18.358,96.031 18.358,96.031 18.358,96.031 18.358,96.031 18.358,96.031 18.358,96.031 
	18.358,96.031 18.358,96.031 18.358,96.031 18.358,96.031 18.358,96.031 18.358,96.031 18.358,96.031 18.358,96.031 18.358,96.031 
	18.358,96.031 18.358,96.031 18.358,96.031 18.358,96.031 18.358,96.031 18.358,96.031 18.358,96.031 18.358,96.031 18.358,96.031 
	18.358,96.031 18.358,96.031 18.358,96.031 18.358,96.031 18.358,96.031 18.358,96.031 18.358,96.031 18.358,96.031 18.358,96.031 
	18.358,96.031 18.358,96.031 18.358,96.031 18.358,96.031 18.358,96.031 18.358,96.031 18.358,96.031 18.358,96.031 18.358,96.031 
	18.358,96.031 18.358,96.031 18.358,96.031 18.358,96.031 18.358,96.031 "/>
<g>
	<g>
		<defs>
			<rect id="SVGID_17_" x="16.461" y="119.258" width="28" height="14"/>
		</defs>
		<clipPath id="SVGID_18_">
			<use xlink:href="#SVGID_17_"  overflow="visible"/>
		</clipPath>
		<path clip-path="url(#SVGID_18_)" d="M20.425,124.471h1.012c0.267,0,0.373,0,0.373-0.214c0-0.159-0.106-0.159-0.319-0.159h-0.959
			l0.214-1.33c0.053-0.269,0.213-1.119,0.319-1.228c0.106-0.266,0.266-0.426,0.532-0.426c0.054,0,0.373,0,0.586,0.213
			c-0.532,0.055-0.639,0.48-0.639,0.641c0,0.267,0.213,0.427,0.426,0.427c0.319,0,0.692-0.269,0.692-0.693
			c0-0.586-0.586-0.852-1.065-0.852c-0.373,0-1.172,0.213-1.491,1.385C20,122.501,20,122.608,19.68,124.098h-0.799
			c-0.213,0-0.373,0-0.373,0.268c0,0.105,0.106,0.105,0.319,0.105h0.799l-0.905,4.739c-0.213,1.117-0.372,2.236-1.012,2.236
			c-0.053,0-0.373,0-0.586-0.213c0.533-0.053,0.64-0.479,0.64-0.64c0-0.268-0.213-0.426-0.427-0.426
			c-0.319,0-0.639,0.267-0.639,0.691c0,0.533,0.532,0.852,1.012,0.852c0.64,0,1.118-0.69,1.332-1.172
			c0.372-0.744,0.691-2.182,0.691-2.289L20.425,124.471"/>
	</g>
	<g>
		<defs>
			<rect id="SVGID_19_" x="16.461" y="119.258" width="28" height="14"/>
		</defs>
		<clipPath id="SVGID_20_">
			<use xlink:href="#SVGID_19_"  overflow="visible"/>
		</clipPath>
		<path clip-path="url(#SVGID_20_)" d="M27.028,132.139c0-0.054,0-0.105-0.213-0.267c-1.491-1.545-1.863-3.781-1.863-5.592
			c0-2.076,0.426-4.154,1.917-5.646c0.159-0.159,0.159-0.159,0.159-0.213c0-0.053-0.053-0.106-0.159-0.106s-1.172,0.799-1.864,2.344
			c-0.639,1.277-0.745,2.609-0.745,3.621c0,0.906,0.106,2.344,0.745,3.729c0.746,1.438,1.758,2.236,1.864,2.236
			S27.028,132.193,27.028,132.139"/>
	</g>
	<g>
		<defs>
			<rect id="SVGID_21_" x="16.461" y="119.258" width="28" height="14"/>
		</defs>
		<clipPath id="SVGID_22_">
			<use xlink:href="#SVGID_21_"  overflow="visible"/>
		</clipPath>
		<path clip-path="url(#SVGID_22_)" d="M34.059,122.182c-0.16,0.157-0.532,0.479-0.532,0.69c0,0.107,0.106,0.213,0.213,0.213
			c0.107,0,0.159-0.053,0.213-0.16c0.159-0.157,0.426-0.479,0.958-0.743c0.106-0.056,0.214-0.107,0.214-0.269
			c0-0.104-0.107-0.16-0.16-0.213c-0.267-0.213-0.426-0.426-0.533-0.691c0-0.106-0.053-0.268-0.213-0.268
			c-0.159,0-0.213,0.16-0.213,0.268c0,0.054,0.054,0.427,0.267,0.691h-4.048c-0.159,0-0.372,0-0.372,0.213
			c0,0.269,0.213,0.269,0.372,0.269H34.059"/>
	</g>
	<g>
		<defs>
			<rect id="SVGID_23_" x="16.461" y="119.258" width="28" height="14"/>
		</defs>
		<clipPath id="SVGID_24_">
			<use xlink:href="#SVGID_23_"  overflow="visible"/>
		</clipPath>
		<path clip-path="url(#SVGID_24_)" d="M31.821,125.643c0.106-0.32,0.373-1.386,1.226-1.386c0.053,0,0.319,0,0.586,0.16
			c-0.373,0.054-0.586,0.373-0.586,0.64c0,0.159,0.106,0.426,0.426,0.426c0.267,0,0.692-0.213,0.692-0.691
			c0-0.641-0.746-0.799-1.118-0.799c-0.692,0-1.119,0.639-1.278,0.904c-0.267-0.799-0.905-0.904-1.278-0.904
			c-1.225,0-1.917,1.543-1.917,1.812c0,0.159,0.106,0.159,0.16,0.159c0.106,0,0.106-0.055,0.159-0.159
			c0.373-1.279,1.172-1.546,1.598-1.546c0.213,0,0.64,0.107,0.64,0.8c0,0.373-0.214,1.172-0.64,2.821
			c-0.213,0.746-0.639,1.226-1.172,1.226c-0.053,0-0.319,0-0.585-0.16c0.319-0.053,0.585-0.266,0.585-0.639
			c0-0.318-0.266-0.373-0.479-0.373c-0.32,0-0.64,0.268-0.64,0.692c0,0.533,0.586,0.746,1.118,0.746
			c0.799,0,1.226-0.799,1.278-0.906c0.106,0.479,0.533,0.906,1.278,0.906c1.225,0,1.917-1.545,1.917-1.811
			c0-0.107-0.106-0.107-0.159-0.107c-0.106,0-0.16,0.053-0.16,0.107c-0.373,1.276-1.225,1.543-1.598,1.543
			c-0.426,0-0.639-0.373-0.639-0.744c0-0.269,0.053-0.533,0.213-1.066L31.821,125.643"/>
	</g>
	<g>
		<defs>
			<rect id="SVGID_25_" x="16.461" y="119.258" width="28" height="14"/>
		</defs>
		<clipPath id="SVGID_26_">
			<use xlink:href="#SVGID_25_"  overflow="visible"/>
		</clipPath>
		<path clip-path="url(#SVGID_26_)" d="M37.413,125.803c0-0.214,0-0.214-0.213-0.214c-0.532,0.531-1.278,0.531-1.65,0.531v0.269
			c0.213,0,0.745,0,1.225-0.214v4.207c0,0.267,0,0.373-0.853,0.373h-0.319v0.318c0.16,0,1.172-0.053,1.491-0.053
			c0.267,0,1.278,0.053,1.491,0.053v-0.318h-0.319c-0.853,0-0.853-0.106-0.853-0.373V125.803"/>
	</g>
	<g>
		<defs>
			<rect id="SVGID_27_" x="16.461" y="119.258" width="28" height="14"/>
		</defs>
		<clipPath id="SVGID_28_">
			<use xlink:href="#SVGID_27_"  overflow="visible"/>
		</clipPath>
		<path clip-path="url(#SVGID_28_)" d="M43.484,126.281c0-0.959-0.106-2.396-0.745-3.729c-0.746-1.438-1.758-2.235-1.864-2.235
			s-0.16,0.055-0.16,0.106c0,0.053,0,0.054,0.267,0.267c1.172,1.225,1.811,3.09,1.811,5.592c0,2.023-0.426,4.154-1.917,5.645
			c-0.16,0.107-0.16,0.16-0.16,0.214c0,0.055,0.054,0.106,0.16,0.106s1.172-0.799,1.864-2.344
			C43.378,128.625,43.484,127.293,43.484,126.281"/>
	</g>
	<g>
		<defs>
			<rect id="SVGID_29_" x="16.461" y="119.258" width="28" height="14"/>
		</defs>
		<clipPath id="SVGID_30_">
			<use xlink:href="#SVGID_29_"  overflow="visible"/>
		</clipPath>
		<path clip-path="url(#SVGID_30_)" fill="none" d="M29.479,126.281L29.479,126.281z"/>
	</g>
</g>
<polygon fill="none" stroke="#000000" stroke-width="1.000000e-06" stroke-miterlimit="10" stroke-opacity="0" points="
	136.358,146.803 136.358,146.803 136.358,146.803 136.358,146.803 136.358,146.803 136.358,146.803 136.358,146.803 
	136.358,146.803 136.358,146.803 136.358,146.803 136.358,146.803 136.358,146.803 136.358,146.803 136.358,146.803 
	136.358,146.803 136.358,146.803 136.358,146.803 136.358,146.803 136.358,146.803 136.358,146.803 136.358,146.803 
	136.358,146.803 136.358,146.803 136.358,146.803 136.358,146.803 136.358,146.803 136.358,146.803 136.358,146.803 
	136.358,146.803 136.358,146.803 136.358,146.803 136.358,146.803 136.358,146.803 136.358,146.803 136.358,146.803 
	136.358,146.803 136.358,146.803 136.358,146.803 136.358,146.803 136.358,146.803 136.358,146.803 136.358,146.803 
	136.358,146.803 136.358,146.803 136.358,146.803 136.358,146.803 136.358,146.803 136.358,146.803 136.358,146.803 
	136.358,146.803 136.358,146.803 136.358,146.803 136.358,146.803 136.358,146.803 136.358,146.803 136.358,146.803 
	136.358,146.803 136.358,146.803 136.358,146.803 136.358,146.803 136.358,146.803 136.358,146.803 136.358,146.803 
	136.358,146.803 136.358,146.803 136.358,146.803 136.358,146.803 136.358,146.803 136.358,146.803 136.358,146.803 
	136.358,146.803 136.358,146.803 136.358,146.803 136.358,146.803 136.358,146.803 136.358,146.803 136.358,146.803 
	136.358,146.803 136.358,146.803 136.358,146.803 136.358,146.803 136.358,146.803 136.358,146.803 136.358,146.803 
	136.358,146.803 136.358,146.803 "/>
<g>
	<g>
		<defs>
			<rect id="SVGID_31_" x="18.332" y="147.801" width="28" height="14"/>
		</defs>
		<clipPath id="SVGID_32_">
			<use xlink:href="#SVGID_31_"  overflow="visible"/>
		</clipPath>
		<path clip-path="url(#SVGID_32_)" d="M22.296,153.014h1.012c0.267,0,0.373,0,0.373-0.214c0-0.159-0.106-0.159-0.319-0.159h-0.959
			l0.214-1.33c0.053-0.269,0.213-1.119,0.319-1.228c0.106-0.266,0.266-0.426,0.532-0.426c0.054,0,0.373,0,0.586,0.213
			c-0.532,0.055-0.639,0.48-0.639,0.642c0,0.266,0.213,0.426,0.426,0.426c0.319,0,0.692-0.269,0.692-0.693
			c0-0.586-0.586-0.852-1.065-0.852c-0.373,0-1.172,0.213-1.491,1.385c-0.106,0.266-0.106,0.373-0.426,1.863h-0.799
			c-0.213,0-0.373,0-0.373,0.268c0,0.105,0.106,0.105,0.319,0.105h0.799l-0.905,4.739c-0.213,1.117-0.372,2.236-1.012,2.236
			c-0.053,0-0.373,0-0.586-0.213c0.533-0.053,0.64-0.479,0.64-0.639c0-0.269-0.213-0.427-0.427-0.427
			c-0.319,0-0.639,0.267-0.639,0.691c0,0.533,0.532,0.852,1.012,0.852c0.64,0,1.118-0.69,1.332-1.172
			c0.372-0.744,0.691-2.182,0.691-2.289L22.296,153.014"/>
	</g>
	<g>
		<defs>
			<rect id="SVGID_33_" x="18.332" y="147.801" width="28" height="14"/>
		</defs>
		<clipPath id="SVGID_34_">
			<use xlink:href="#SVGID_33_"  overflow="visible"/>
		</clipPath>
		<path clip-path="url(#SVGID_34_)" d="M28.899,160.682c0-0.054,0-0.105-0.213-0.267c-1.491-1.545-1.863-3.781-1.863-5.592
			c0-2.076,0.426-4.154,1.917-5.645c0.159-0.16,0.159-0.16,0.159-0.214c0-0.053-0.053-0.106-0.159-0.106
			c-0.106,0-1.172,0.799-1.864,2.344c-0.639,1.277-0.745,2.609-0.745,3.621c0,0.906,0.106,2.344,0.745,3.729
			c0.746,1.438,1.758,2.235,1.864,2.235C28.846,160.789,28.899,160.736,28.899,160.682"/>
	</g>
	<g>
		<defs>
			<rect id="SVGID_35_" x="18.332" y="147.801" width="28" height="14"/>
		</defs>
		<clipPath id="SVGID_36_">
			<use xlink:href="#SVGID_35_"  overflow="visible"/>
		</clipPath>
		<path clip-path="url(#SVGID_36_)" d="M35.93,150.725c-0.16,0.157-0.532,0.479-0.532,0.69c0,0.107,0.106,0.213,0.213,0.213
			s0.159-0.053,0.213-0.16c0.159-0.157,0.426-0.479,0.958-0.743c0.106-0.056,0.214-0.107,0.214-0.269c0-0.104-0.107-0.16-0.16-0.213
			c-0.267-0.213-0.426-0.426-0.533-0.69c0-0.107-0.053-0.269-0.213-0.269c-0.159,0-0.213,0.16-0.213,0.269
			c0,0.053,0.054,0.426,0.267,0.69h-4.048c-0.159,0-0.372,0-0.372,0.213c0,0.269,0.213,0.269,0.372,0.269H35.93"/>
	</g>
	<g>
		<defs>
			<rect id="SVGID_37_" x="18.332" y="147.801" width="28" height="14"/>
		</defs>
		<clipPath id="SVGID_38_">
			<use xlink:href="#SVGID_37_"  overflow="visible"/>
		</clipPath>
		<path clip-path="url(#SVGID_38_)" d="M33.692,154.186c0.106-0.32,0.373-1.386,1.226-1.386c0.053,0,0.319,0,0.586,0.16
			c-0.373,0.054-0.586,0.373-0.586,0.64c0,0.16,0.106,0.426,0.426,0.426c0.267,0,0.692-0.213,0.692-0.691
			c0-0.641-0.746-0.799-1.118-0.799c-0.692,0-1.119,0.639-1.278,0.904c-0.267-0.799-0.905-0.904-1.278-0.904
			c-1.225,0-1.917,1.543-1.917,1.812c0,0.159,0.106,0.159,0.16,0.159c0.106,0,0.106-0.055,0.159-0.159
			c0.373-1.279,1.172-1.545,1.598-1.545c0.213,0,0.64,0.106,0.64,0.799c0,0.373-0.214,1.172-0.64,2.821
			c-0.213,0.746-0.639,1.226-1.172,1.226c-0.053,0-0.319,0-0.585-0.16c0.319-0.053,0.585-0.266,0.585-0.639
			c0-0.318-0.266-0.373-0.479-0.373c-0.32,0-0.64,0.268-0.64,0.692c0,0.533,0.586,0.746,1.118,0.746
			c0.799,0,1.226-0.799,1.278-0.906c0.106,0.479,0.533,0.906,1.278,0.906c1.225,0,1.917-1.545,1.917-1.811
			c0-0.107-0.106-0.107-0.159-0.107c-0.106,0-0.16,0.053-0.16,0.107c-0.373,1.276-1.225,1.543-1.598,1.543
			c-0.426,0-0.639-0.373-0.639-0.744c0-0.269,0.053-0.533,0.213-1.066L33.692,154.186"/>
	</g>
	<g>
		<defs>
			<rect id="SVGID_39_" x="18.332" y="147.801" width="28" height="14"/>
		</defs>
		<clipPath id="SVGID_40_">
			<use xlink:href="#SVGID_39_"  overflow="visible"/>
		</clipPath>
		<path clip-path="url(#SVGID_40_)" d="M40.723,158.072h-0.319c0,0.213-0.107,0.693-0.214,0.799
			c-0.053,0.055-0.691,0.055-0.798,0.055h-1.545c0.905-0.799,1.172-1.012,1.651-1.438c0.639-0.479,1.225-0.957,1.225-1.756
			c0-1.012-0.905-1.599-1.971-1.599c-1.012,0-1.704,0.691-1.704,1.49c0,0.373,0.373,0.426,0.426,0.426
			c0.213,0,0.427-0.104,0.427-0.426c0-0.16-0.054-0.426-0.479-0.426c0.266-0.586,0.852-0.799,1.225-0.799
			c0.799,0,1.278,0.639,1.278,1.332c0,0.69-0.532,1.276-0.799,1.598l-1.971,1.971c-0.106,0.054-0.106,0.054-0.106,0.318h3.408
			L40.723,158.072"/>
	</g>
	<g>
		<defs>
			<rect id="SVGID_41_" x="18.332" y="147.801" width="28" height="14"/>
		</defs>
		<clipPath id="SVGID_42_">
			<use xlink:href="#SVGID_41_"  overflow="visible"/>
		</clipPath>
		<path clip-path="url(#SVGID_42_)" d="M45.355,154.824c0-0.959-0.106-2.396-0.745-3.729c-0.746-1.438-1.758-2.236-1.864-2.236
			s-0.16,0.055-0.16,0.106c0,0.053,0,0.054,0.267,0.267c1.172,1.225,1.811,3.09,1.811,5.592c0,2.023-0.426,4.154-1.917,5.646
			c-0.16,0.106-0.16,0.159-0.16,0.213c0,0.055,0.054,0.106,0.16,0.106s1.172-0.799,1.864-2.344
			C45.249,157.168,45.355,155.836,45.355,154.824"/>
	</g>
	<g>
		<defs>
			<rect id="SVGID_43_" x="18.332" y="147.801" width="28" height="14"/>
		</defs>
		<clipPath id="SVGID_44_">
			<use xlink:href="#SVGID_43_"  overflow="visible"/>
		</clipPath>
		<path clip-path="url(#SVGID_44_)" fill="none" d="M31.35,154.824L31.35,154.824z"/>
	</g>
</g>
<polygon fill="none" stroke="#000000" stroke-width="1.000000e-06" stroke-miterlimit="10" stroke-opacity="0" points="
	170.357,144.803 170.357,144.803 170.357,144.803 170.357,144.803 170.357,144.803 170.357,144.803 170.357,144.803 
	170.357,144.803 170.357,144.803 170.357,144.803 170.357,144.803 170.357,144.803 170.357,144.803 170.357,144.803 
	170.357,144.803 170.357,144.803 170.357,144.803 170.357,144.803 170.357,144.803 170.357,144.803 170.357,144.803 
	170.357,144.803 170.357,144.803 170.357,144.803 170.357,144.803 170.357,144.803 170.357,144.803 170.357,144.803 
	170.357,144.803 170.357,144.803 170.357,144.803 170.357,144.803 170.357,144.803 170.357,144.803 170.357,144.803 
	170.357,144.803 170.357,144.803 170.357,144.803 170.357,144.803 170.357,144.803 170.357,144.803 170.357,144.803 
	170.357,144.803 170.357,144.803 170.357,144.803 170.357,144.803 170.357,144.803 170.357,144.803 170.357,144.803 
	170.357,144.803 170.357,144.803 170.357,144.803 170.357,144.803 170.357,144.803 170.357,144.803 170.357,144.803 
	170.357,144.803 170.357,144.803 170.357,144.803 170.357,144.803 170.357,144.803 170.357,144.803 170.357,144.803 
	170.357,144.803 170.357,144.803 170.357,144.803 170.357,144.803 170.357,144.803 170.357,144.803 170.357,144.803 
	170.357,144.803 170.357,144.803 170.357,144.803 170.357,144.803 170.357,144.803 170.357,144.803 170.357,144.803 
	170.357,144.803 170.357,144.803 170.357,144.803 170.357,144.803 170.357,144.803 170.357,144.803 170.357,144.803 
	170.357,144.803 170.357,144.803 "/>
<line fill="none" stroke="#000000" stroke-miterlimit="10" stroke-dasharray="2" x1="50.823" y1="126.803" x2="238.823" y2="126.803"/>
<line fill="none" stroke="#000000" stroke-miterlimit="10" stroke-dasharray="2" x1="50.823" y1="154.801" x2="238.823" y2="154.801"/>
<g>
	<g>
		<line fill="none" stroke="#000000" stroke-miterlimit="10" x1="320.489" y1="198.82" x2="320.489" y2="35.188"/>
		<g>
			<path d="M320.489,29.154c1.054,2.84,2.852,6.362,4.756,8.547l-4.756-1.721l-4.755,1.721
				C317.639,35.516,319.438,31.994,320.489,29.154z"/>
		</g>
	</g>
</g>
<g>
	<g>
		<line fill="none" stroke="#000000" stroke-miterlimit="10" x1="294.822" y1="181.82" x2="525.454" y2="181.82"/>
		<g>
			<path d="M531.489,181.82c-2.841,1.054-6.363,2.852-8.548,4.756l1.721-4.756l-1.721-4.756
				C525.126,178.969,528.648,180.766,531.489,181.82z"/>
		</g>
	</g>
</g>
<polygon fill="none" stroke="#000000" stroke-width="1.000000e-06" stroke-miterlimit="10" stroke-opacity="0" points="
	285.023,97.048 285.023,97.048 285.023,97.048 285.023,97.048 285.023,97.048 285.023,97.048 285.023,97.048 285.023,97.048 
	285.023,97.048 285.023,97.048 285.023,97.048 285.023,97.048 285.023,97.048 285.023,97.048 285.023,97.048 285.023,97.048 
	285.023,97.048 285.023,97.048 285.023,97.048 285.023,97.048 285.023,97.048 285.023,97.048 285.023,97.048 285.023,97.048 
	285.023,97.048 285.023,97.048 285.023,97.048 285.023,97.048 285.023,97.048 285.023,97.048 285.023,97.048 285.023,97.048 
	285.023,97.048 285.023,97.048 285.023,97.048 285.023,97.048 285.023,97.048 285.023,97.048 285.023,97.048 285.023,97.048 
	285.023,97.048 285.023,97.048 285.023,97.048 285.023,97.048 285.023,97.048 285.023,97.048 285.023,97.048 285.023,97.048 
	285.023,97.048 285.023,97.048 285.023,97.048 285.023,97.048 285.023,97.048 285.023,97.048 285.023,97.048 285.023,97.048 
	285.023,97.048 285.023,97.048 285.023,97.048 285.023,97.048 285.023,97.048 285.023,97.048 285.023,97.048 285.023,97.048 
	285.023,97.048 285.023,97.048 285.023,97.048 285.023,97.048 285.023,97.048 285.023,97.048 285.023,97.048 285.023,97.048 
	285.023,97.048 285.023,97.048 285.023,97.048 285.023,97.048 285.023,97.048 285.023,97.048 285.023,97.048 285.023,97.048 
	285.023,97.048 285.023,97.048 285.023,97.048 285.023,97.048 285.023,97.048 285.023,97.048 "/>
<polygon fill="none" stroke="#000000" stroke-width="1.000000e-06" stroke-miterlimit="10" stroke-opacity="0" points="
	403.023,147.82 403.023,147.82 403.023,147.82 403.023,147.82 403.023,147.82 403.023,147.82 403.023,147.82 403.023,147.82 
	403.023,147.82 403.023,147.82 403.023,147.82 403.023,147.82 403.023,147.82 403.023,147.82 403.023,147.82 403.023,147.82 
	403.023,147.82 403.023,147.82 403.023,147.82 403.023,147.82 403.023,147.82 403.023,147.82 403.023,147.82 403.023,147.82 
	403.023,147.82 403.023,147.82 403.023,147.82 403.023,147.82 403.023,147.82 403.023,147.82 403.023,147.82 403.023,147.82 
	403.023,147.82 403.023,147.82 403.023,147.82 403.023,147.82 403.023,147.82 403.023,147.82 403.023,147.82 403.023,147.82 
	403.023,147.82 403.023,147.82 403.023,147.82 403.023,147.82 403.023,147.82 403.023,147.82 403.023,147.82 403.023,147.82 
	403.023,147.82 403.023,147.82 403.023,147.82 403.023,147.82 403.023,147.82 403.023,147.82 403.023,147.82 403.023,147.82 
	403.023,147.82 403.023,147.82 403.023,147.82 403.023,147.82 403.023,147.82 403.023,147.82 403.023,147.82 403.023,147.82 
	403.023,147.82 403.023,147.82 403.023,147.82 403.023,147.82 403.023,147.82 403.023,147.82 403.023,147.82 403.023,147.82 
	403.023,147.82 403.023,147.82 403.023,147.82 403.023,147.82 403.023,147.82 403.023,147.82 403.023,147.82 403.023,147.82 
	403.023,147.82 403.023,147.82 403.023,147.82 403.023,147.82 403.023,147.82 403.023,147.82 "/>
<polygon fill="none" stroke="#000000" stroke-width="1.000000e-06" stroke-miterlimit="10" stroke-opacity="0" points="
	437.023,145.82 437.023,145.82 437.023,145.82 437.023,145.82 437.023,145.82 437.023,145.82 437.023,145.82 437.023,145.82 
	437.023,145.82 437.023,145.82 437.023,145.82 437.023,145.82 437.023,145.82 437.023,145.82 437.023,145.82 437.023,145.82 
	437.023,145.82 437.023,145.82 437.023,145.82 437.023,145.82 437.023,145.82 437.023,145.82 437.023,145.82 437.023,145.82 
	437.023,145.82 437.023,145.82 437.023,145.82 437.023,145.82 437.023,145.82 437.023,145.82 437.023,145.82 437.023,145.82 
	437.023,145.82 437.023,145.82 437.023,145.82 437.023,145.82 437.023,145.82 437.023,145.82 437.023,145.82 437.023,145.82 
	437.023,145.82 437.023,145.82 437.023,145.82 437.023,145.82 437.023,145.82 437.023,145.82 437.023,145.82 437.023,145.82 
	437.023,145.82 437.023,145.82 437.023,145.82 437.023,145.82 437.023,145.82 437.023,145.82 437.023,145.82 437.023,145.82 
	437.023,145.82 437.023,145.82 437.023,145.82 437.023,145.82 437.023,145.82 437.023,145.82 437.023,145.82 437.023,145.82 
	437.023,145.82 437.023,145.82 437.023,145.82 437.023,145.82 437.023,145.82 437.023,145.82 437.023,145.82 437.023,145.82 
	437.023,145.82 437.023,145.82 437.023,145.82 437.023,145.82 437.023,145.82 437.023,145.82 437.023,145.82 437.023,145.82 
	437.023,145.82 437.023,145.82 437.023,145.82 437.023,145.82 437.023,145.82 437.023,145.82 "/>
<path fill="#3FA9F5" fill-opacity="0.34" d="M333.566,63.208c1.187,2.571,2.345,5.155,3.409,7.738
	c13.257,30.939,9.257,67.939,30.146,95.25c1.806,1.953,3.907,3.525,6.375,4.62c4.936,2.189,11.335,2.47,19.735,0.069
	c14.167-5,13.75-22.5,21.319-35.139c1.514-2.528,3.348-4.861,5.681-6.862c22-10.999,30,21.001,45,29.001c21,11,42-10,47.59-30.429
	c1.088-3.175,2.061-6.441,2.938-9.763c5.261-19.929,7.075-41.813,9.694-59.9"/>
<path fill="none" stroke="#000000" stroke-miterlimit="10" d="M333.566,63.208c1.187,2.571,2.345,5.155,3.409,7.738
	c13.257,30.939,9.257,67.939,30.146,95.25c1.806,1.953,3.907,3.525,6.375,4.62c4.936,2.189,11.335,2.47,19.735,0.069
	c14.167-5,13.75-22.5,21.319-35.139c1.514-2.528,3.348-4.861,5.681-6.862c22-10.999,30,21.001,45,29.001c21,11,42-10,47.59-30.429
	c1.088-3.175,2.061-6.441,2.938-9.763c5.261-19.93,7.075-41.813,9.694-59.9"/>
<line fill="none" stroke="#E2133F" stroke-miterlimit="10" x1="380.876" y1="172.529" x2="474.802" y2="160.799"/>
<text transform="matrix(1 0 0 1 108.2324 30.552)" font-family="'CMUSerif-Roman'" font-size="12">Convex</text>
<text transform="matrix(1 0 0 1 388.5664 30.5525)" font-family="'CMUSerif-Roman'" font-size="12">Nonconvex</text>
</svg>
