<?xml version="1.0" encoding="UTF-8" standalone="no"?>
<svg
   xmlns:dc="http://purl.org/dc/elements/1.1/"
   xmlns:cc="http://creativecommons.org/ns#"
   xmlns:rdf="http://www.w3.org/1999/02/22-rdf-syntax-ns#"
   xmlns:svg="http://www.w3.org/2000/svg"
   xmlns="http://www.w3.org/2000/svg"
   viewBox="0 0 138.66667 164"
   height="164"
   width="138.66667"
   xml:space="preserve"
   id="svg2"
   version="1.1"><metadata
     id="metadata8"><rdf:RDF><cc:Work
         rdf:about=""><dc:format>image/svg+xml</dc:format><dc:type
           rdf:resource="http://purl.org/dc/dcmitype/StillImage" /><dc:title></dc:title></cc:Work></rdf:RDF></metadata><defs
     id="defs6" /><g
     transform="matrix(1.3333333,0,0,-1.3333333,0,164)"
     id="g10"><g
       id="g12"><path
         id="path14"
         style="fill:none;stroke:#002671;stroke-width:1.79999995;stroke-linecap:butt;stroke-linejoin:miter;stroke-miterlimit:3.25;stroke-dasharray:none;stroke-opacity:1"
         d="m 14.398,79.801 18.707,10.801 18.708,10.796" /><path
         id="path16"
         style="fill:#002671;fill-opacity:1;fill-rule:nonzero;stroke:#002671;stroke-width:0.03;stroke-linecap:square;stroke-linejoin:miter;stroke-miterlimit:3.25;stroke-dasharray:none;stroke-opacity:1"
         d="m 28.094,92.082 0.398,-0.269 0.918,-0.665 0.524,-0.414 0.496,-0.437 0.422,-0.434 0.289,-0.398 0.175,-0.41 0.161,-0.575 0.14,-0.667 0.121,-0.696 0.164,-1.207 0.055,-0.523 L 42.461,96 Z" /><path
         id="path18"
         style="fill:none;stroke:#002671;stroke-width:1.79999995;stroke-linecap:butt;stroke-linejoin:miter;stroke-miterlimit:3.25;stroke-dasharray:none;stroke-opacity:1"
         d="M 14.398,79.801 V 36.602" /><path
         id="path20"
         style="fill:#002671;fill-opacity:1;fill-rule:nonzero;stroke:#002671;stroke-width:0.03;stroke-linecap:square;stroke-linejoin:miter;stroke-miterlimit:3.25;stroke-dasharray:none;stroke-opacity:1"
         d="m 18.191,61.801 -0.433,-0.211 -1.035,-0.465 -0.621,-0.242 -0.625,-0.215 -0.586,-0.145 -0.493,-0.05 -0.445,0.05 -0.574,0.145 -0.649,0.215 -0.66,0.242 -1.129,0.465 -0.48,0.211 3.937,-14.403 z" /><path
         id="path22"
         style="fill:none;stroke:#005826;stroke-width:1.79999995;stroke-linecap:butt;stroke-linejoin:miter;stroke-miterlimit:3.25;stroke-dasharray:none;stroke-opacity:1"
         d="M 89.223,79.801 70.52,90.602 51.813,101.398" /><path
         id="path24"
         style="fill:#005826;fill-opacity:1;fill-rule:nonzero;stroke:#005826;stroke-width:0.03;stroke-linecap:square;stroke-linejoin:miter;stroke-miterlimit:3.25;stroke-dasharray:none;stroke-opacity:1"
         d="m 71.742,85.52 0.031,0.476 0.118,1.129 0.097,0.66 0.129,0.649 0.164,0.578 0.203,0.453 0.266,0.359 0.418,0.426 0.508,0.453 0.543,0.453 0.965,0.746 0.421,0.313 L 61.164,96 Z" /><path
         id="path26"
         style="fill:none;stroke:#005826;stroke-width:1.79999995;stroke-linecap:butt;stroke-linejoin:miter;stroke-miterlimit:3.25;stroke-dasharray:none;stroke-opacity:1"
         d="M 89.223,79.801 V 36.602" /><path
         id="path28"
         style="fill:#005826;fill-opacity:1;fill-rule:nonzero;stroke:#005826;stroke-width:0.03;stroke-linecap:square;stroke-linejoin:miter;stroke-miterlimit:3.25;stroke-dasharray:none;stroke-opacity:1"
         d="m 93.016,61.801 -0.434,-0.211 -1.031,-0.465 -0.625,-0.242 -0.625,-0.215 -0.586,-0.145 -0.492,-0.05 -0.442,0.05 -0.578,0.145 -0.648,0.215 -0.66,0.242 -1.129,0.465 -0.481,0.211 3.938,-14.403 z" /><path
         id="path30"
         style="fill:none;stroke:#002671;stroke-width:1.79999995;stroke-linecap:butt;stroke-linejoin:miter;stroke-miterlimit:3.25;stroke-dasharray:none;stroke-opacity:1"
         d="M 51.813,15 70.52,25.801 89.223,36.602" /><path
         id="path32"
         style="fill:#002671;fill-opacity:1;fill-rule:nonzero;stroke:#002671;stroke-width:0.03;stroke-linecap:square;stroke-linejoin:miter;stroke-miterlimit:3.25;stroke-dasharray:none;stroke-opacity:1"
         d="m 65.508,27.281 0.398,-0.265 0.914,-0.668 0.524,-0.414 0.5,-0.438 0.418,-0.43 0.289,-0.402 0.179,-0.41 0.161,-0.574 0.14,-0.668 0.117,-0.696 0.165,-1.207 0.058,-0.523 10.5,10.613 z" /><path
         id="path34"
         style="fill:none;stroke:#002671;stroke-width:1.79999995;stroke-linecap:butt;stroke-linejoin:miter;stroke-miterlimit:3.25;stroke-dasharray:none;stroke-opacity:1"
         d="M 51.813,15 14.398,36.602" /><path
         id="path36"
         style="fill:#002671;fill-opacity:1;fill-rule:nonzero;stroke:#002671;stroke-width:0.03;stroke-linecap:square;stroke-linejoin:miter;stroke-miterlimit:3.25;stroke-dasharray:none;stroke-opacity:1"
         d="m 34.328,20.719 0.035,0.476 0.117,1.129 0.098,0.66 0.129,0.649 0.164,0.582 0.203,0.449 0.266,0.359 0.414,0.426 0.508,0.457 0.543,0.449 0.965,0.747 0.425,0.312 -14.441,3.785 z" /><path
         id="path38"
         style="fill:#cdffff;fill-opacity:1;fill-rule:evenodd;stroke:none"
         d="m 23.398,79.801 c 0,2.387 -0.945,4.676 -2.632,6.363 -1.692,1.688 -3.981,2.637 -6.368,2.637 -2.386,0 -4.675,-0.949 -6.363,-2.637 -1.687,-1.687 -2.637,-3.976 -2.637,-6.363 0,-2.387 0.95,-4.676 2.637,-6.363 1.688,-1.688 3.977,-2.637 6.363,-2.637 2.387,0 4.676,0.949 6.368,2.637 1.687,1.687 2.632,3.976 2.632,6.363 z" /><path
         id="path40"
         style="fill:none;stroke:#808080;stroke-width:0.14399999;stroke-linecap:square;stroke-linejoin:miter;stroke-miterlimit:3.25;stroke-dasharray:none;stroke-opacity:0.7"
         d="m 23.398,79.801 c 0,2.387 -0.945,4.676 -2.632,6.363 -1.692,1.688 -3.981,2.637 -6.368,2.637 -2.386,0 -4.675,-0.949 -6.363,-2.637 -1.687,-1.687 -2.637,-3.976 -2.637,-6.363 0,-2.387 0.95,-4.676 2.637,-6.363 1.688,-1.688 3.977,-2.637 6.363,-2.637 2.387,0 4.676,0.949 6.368,2.637 1.687,1.687 2.632,3.976 2.632,6.363 z" /><text
         id="text44"
         style="font-variant:normal;font-size:9.359375px;font-family:CairoFont-0;-inkscape-font-specification:CairoFont-0-0;writing-mode:lr-tb;fill:#000000;fill-opacity:1;fill-rule:nonzero;stroke:none"
         transform="matrix(1,0,0,-1,10.9,76.8)"><tspan
           id="tspan42"
           y="0"
           x="0">X</tspan></text>
<path
         id="path46"
         style="fill:#ffffcd;fill-opacity:1;fill-rule:nonzero;stroke:#ffffcd;stroke-width:0.03;stroke-linecap:square;stroke-linejoin:miter;stroke-miterlimit:3.25;stroke-dasharray:none;stroke-opacity:1"
         d="m 41.012,94.199 10.801,21.602 10.8,-21.602 z" /><path
         id="path48"
         style="fill:none;stroke:#808080;stroke-width:0.14399999;stroke-linecap:square;stroke-linejoin:miter;stroke-miterlimit:3.25;stroke-dasharray:none;stroke-opacity:0.7"
         d="m 41.012,94.199 10.801,21.602 10.8,-21.602 z" /><text
         id="text52"
         style="font-variant:normal;font-size:9.359375px;font-family:CairoFont-0;-inkscape-font-specification:CairoFont-0-0;writing-mode:lr-tb;fill:#000000;fill-opacity:1;fill-rule:nonzero;stroke:none"
         transform="matrix(1,0,0,-1,48.335247,98.4)"><tspan
           id="tspan50"
           y="0"
           x="0">A</tspan></text>
<path
         id="path54"
         style="fill:#f6fff6;fill-opacity:1;fill-rule:nonzero;stroke:#f6fff6;stroke-width:0.03;stroke-linecap:square;stroke-linejoin:miter;stroke-miterlimit:3.25;stroke-dasharray:none;stroke-opacity:1"
         d="m 78.426,72.602 10.797,21.597 10.8,-21.597 z" /><path
         id="path56"
         style="fill:none;stroke:#808080;stroke-width:0.14399999;stroke-linecap:square;stroke-linejoin:miter;stroke-miterlimit:3.25;stroke-dasharray:none;stroke-opacity:0.7"
         d="m 78.426,72.602 10.797,21.597 10.8,-21.597 z" /><text
         id="text60"
         style="font-variant:normal;font-size:9.359375px;font-family:CairoFont-0;-inkscape-font-specification:CairoFont-0-0;writing-mode:lr-tb;fill:#000000;fill-opacity:1;fill-rule:nonzero;stroke:none"
         transform="matrix(1,0,0,-1,85.224595,76.8)"><tspan
           id="tspan58"
           y="0"
           x="0">Y</tspan></text>
<path
         id="path62"
         style="fill:#cdffff;fill-opacity:1;fill-rule:evenodd;stroke:none"
         d="m 60.813,15 c 0,2.387 -0.95,4.676 -2.637,6.363 C 56.488,23.051 54.199,24 51.813,24 49.426,24 47.137,23.051 45.449,21.363 43.762,19.676 42.813,17.387 42.813,15 c 0,-2.387 0.949,-4.676 2.636,-6.363 C 47.137,6.949 49.426,6 51.813,6 c 2.386,0 4.675,0.949 6.363,2.637 1.687,1.687 2.637,3.976 2.637,6.363 z" /><path
         id="path64"
         style="fill:none;stroke:#808080;stroke-width:0.14399999;stroke-linecap:square;stroke-linejoin:miter;stroke-miterlimit:3.25;stroke-dasharray:none;stroke-opacity:0.7"
         d="m 60.813,15 c 0,2.387 -0.95,4.676 -2.637,6.363 C 56.488,23.051 54.199,24 51.813,24 49.426,24 47.137,23.051 45.449,21.363 43.762,19.676 42.813,17.387 42.813,15 c 0,-2.387 0.949,-4.676 2.636,-6.363 C 47.137,6.949 49.426,6 51.813,6 c 2.386,0 4.675,0.949 6.363,2.637 1.687,1.687 2.637,3.976 2.637,6.363 z" /><text
         id="text68"
         style="font-variant:normal;font-size:9.359375px;font-family:CairoFont-0;-inkscape-font-specification:CairoFont-0-0;writing-mode:lr-tb;fill:#000000;fill-opacity:1;fill-rule:nonzero;stroke:none"
         transform="matrix(1,0,0,-1,48.812297,12)"><tspan
           id="tspan66"
           y="0"
           x="0">Z</tspan></text>
<path
         id="path70"
         style="fill:#ffffcd;fill-opacity:1;fill-rule:nonzero;stroke:#ffffcd;stroke-width:0.03;stroke-linecap:square;stroke-linejoin:miter;stroke-miterlimit:3.25;stroke-dasharray:none;stroke-opacity:1"
         d="M 78.426,29.398 89.223,51 l 10.8,-21.602 z" /><path
         id="path72"
         style="fill:none;stroke:#808080;stroke-width:0.14399999;stroke-linecap:square;stroke-linejoin:miter;stroke-miterlimit:3.25;stroke-dasharray:none;stroke-opacity:0.7"
         d="M 78.426,29.398 89.223,51 l 10.8,-21.602 z" /><text
         id="text76"
         style="font-variant:normal;font-size:9.359375px;font-family:CairoFont-0;-inkscape-font-specification:CairoFont-0-0;writing-mode:lr-tb;fill:#000000;fill-opacity:1;fill-rule:nonzero;stroke:none"
         transform="matrix(1,0,0,-1,85.930161,33.6)"><tspan
           id="tspan74"
           y="0"
           x="0">B</tspan></text>
<path
         id="path78"
         style="fill:#ffffcd;fill-opacity:1;fill-rule:nonzero;stroke:#ffffcd;stroke-width:0.03;stroke-linecap:square;stroke-linejoin:miter;stroke-miterlimit:3.25;stroke-dasharray:none;stroke-opacity:1"
         d="M 3.602,29.398 14.398,51 25.199,29.398 Z" /><path
         id="path80"
         style="fill:none;stroke:#808080;stroke-width:0.14399999;stroke-linecap:square;stroke-linejoin:miter;stroke-miterlimit:3.25;stroke-dasharray:none;stroke-opacity:0.7"
         d="M 3.602,29.398 14.398,51 25.199,29.398 Z" /><text
         id="text84"
         style="font-variant:normal;font-size:9.359375px;font-family:CairoFont-0;-inkscape-font-specification:CairoFont-0-0;writing-mode:lr-tb;fill:#000000;fill-opacity:1;fill-rule:nonzero;stroke:none"
         transform="matrix(1,0,0,-1,10.9,33.6)"><tspan
           id="tspan82"
           y="0"
           x="0">C</tspan></text>
</g></g></svg>