<?xml version="1.0" encoding="UTF-8" standalone="no"?>
<svg
   xmlns:dc="http://purl.org/dc/elements/1.1/"
   xmlns:cc="http://creativecommons.org/ns#"
   xmlns:rdf="http://www.w3.org/1999/02/22-rdf-syntax-ns#"
   xmlns:svg="http://www.w3.org/2000/svg"
   xmlns="http://www.w3.org/2000/svg"
   viewBox="0 0 156 185.33333"
   height="185.33333"
   width="156"
   xml:space="preserve"
   id="svg2"
   version="1.1"><metadata
     id="metadata8"><rdf:RDF><cc:Work
         rdf:about=""><dc:format>image/svg+xml</dc:format><dc:type
           rdf:resource="http://purl.org/dc/dcmitype/StillImage" /><dc:title></dc:title></cc:Work></rdf:RDF></metadata><defs
     id="defs6" /><g
     transform="matrix(1.3333333,0,0,-1.3333333,0,185.33333)"
     id="g10"><g
       id="g12"><path
         id="path14"
         style="fill:none;stroke:#002671;stroke-width:1.79999995;stroke-linecap:butt;stroke-linejoin:miter;stroke-miterlimit:3.25;stroke-dasharray:none;stroke-opacity:1"
         d="M 11.594,73.266 V 31.395" /><path
         id="path16"
         style="fill:#002671;fill-opacity:1;fill-rule:nonzero;stroke:#002671;stroke-width:0.03;stroke-linecap:square;stroke-linejoin:miter;stroke-miterlimit:3.25;stroke-dasharray:none;stroke-opacity:1"
         d="m 15.383,56.266 -0.434,-0.211 -1.031,-0.465 -0.625,-0.246 -0.625,-0.211 -0.586,-0.149 -0.488,-0.05 -0.446,0.05 -0.578,0.149 -0.648,0.211 -0.66,0.246 -1.129,0.465 -0.481,0.211 3.942,-14.403 z" /><path
         id="path18"
         style="fill:none;stroke:#002671;stroke-width:1.79999995;stroke-linecap:butt;stroke-linejoin:miter;stroke-miterlimit:3.25;stroke-dasharray:none;stroke-opacity:1"
         d="m 11.594,73.266 18.129,25.273 18.129,25.27" /><path
         id="path20"
         style="fill:#002671;fill-opacity:1;fill-rule:nonzero;stroke:#002671;stroke-width:0.03;stroke-linecap:square;stroke-linejoin:miter;stroke-miterlimit:3.25;stroke-dasharray:none;stroke-opacity:1"
         d="m 27.313,101.68 0.476,-0.078 1.109,-0.227 0.649,-0.164 0.633,-0.191 0.558,-0.223 0.43,-0.246 0.332,-0.301 0.383,-0.453 0.402,-0.551 0.395,-0.586 0.648,-1.035 0.266,-0.449 5.195,13.996 z" /><path
         id="path22"
         style="fill:none;stroke:#005826;stroke-width:1.79999995;stroke-linecap:butt;stroke-linejoin:miter;stroke-miterlimit:3.25;stroke-dasharray:none;stroke-opacity:1"
         d="M 84.113,73.266 V 31.395" /><path
         id="path24"
         style="fill:#005826;fill-opacity:1;fill-rule:nonzero;stroke:#005826;stroke-width:0.03;stroke-linecap:square;stroke-linejoin:miter;stroke-miterlimit:3.25;stroke-dasharray:none;stroke-opacity:1"
         d="m 87.902,56.266 -0.429,-0.211 -1.035,-0.465 -0.622,-0.246 -0.628,-0.211 -0.583,-0.149 -0.492,-0.05 -0.445,0.05 -0.574,0.149 -0.649,0.211 -0.664,0.246 -1.129,0.465 -0.48,0.211 3.941,-14.403 z" /><path
         id="path26"
         style="fill:none;stroke:#002671;stroke-width:1.79999995;stroke-linecap:butt;stroke-linejoin:miter;stroke-miterlimit:3.25;stroke-dasharray:none;stroke-opacity:1"
         d="M 47.852,10.461 65.984,20.93 84.113,31.395" /><path
         id="path28"
         style="fill:#002671;fill-opacity:1;fill-rule:nonzero;stroke:#002671;stroke-width:0.03;stroke-linecap:square;stroke-linejoin:miter;stroke-miterlimit:3.25;stroke-dasharray:none;stroke-opacity:1"
         d="m 60.684,22.246 0.398,-0.269 0.914,-0.664 0.524,-0.418 0.5,-0.434 0.418,-0.434 0.289,-0.398 0.179,-0.414 0.16,-0.57 0.141,-0.668 0.117,-0.696 0.164,-1.211 0.059,-0.519 10.5,10.613 z" /><path
         id="path30"
         style="fill:none;stroke:#002671;stroke-width:1.79999995;stroke-linecap:butt;stroke-linejoin:miter;stroke-miterlimit:3.25;stroke-dasharray:none;stroke-opacity:1"
         d="M 47.852,10.461 29.723,20.93 11.594,31.395" /><path
         id="path32"
         style="fill:#002671;fill-opacity:1;fill-rule:nonzero;stroke:#002671;stroke-width:0.03;stroke-linecap:square;stroke-linejoin:miter;stroke-miterlimit:3.25;stroke-dasharray:none;stroke-opacity:1"
         d="m 31.234,15.68 0.032,0.48 0.117,1.125 0.097,0.664 0.129,0.649 0.164,0.578 0.204,0.453 0.265,0.359 0.418,0.426 0.508,0.453 0.543,0.449 0.965,0.75 0.422,0.309 -14.442,3.789 z" /><path
         id="path34"
         style="fill:none;stroke:#005826;stroke-width:1.79999995;stroke-linecap:butt;stroke-linejoin:miter;stroke-miterlimit:3.25;stroke-dasharray:none;stroke-opacity:1"
         d="m 105.047,85.352 -28.598,19.23 -28.597,19.227" /><path
         id="path36"
         style="fill:#005826;fill-opacity:1;fill-rule:nonzero;stroke:#005826;stroke-width:0.03;stroke-linecap:square;stroke-linejoin:miter;stroke-miterlimit:3.25;stroke-dasharray:none;stroke-opacity:1"
         d="m 71.988,103.016 0.063,0.476 0.195,1.113 0.145,0.653 0.172,0.64 0.203,0.567 0.234,0.437 0.289,0.34 0.445,0.395 0.536,0.422 0.574,0.41 1.011,0.679 0.446,0.282 -14.149,4.765 z" /><path
         id="path38"
         style="fill:#cdffff;fill-opacity:1;fill-rule:evenodd;stroke:none"
         d="m 20.594,73.266 c 0,2.386 -0.949,4.675 -2.637,6.363 -1.687,1.687 -3.977,2.637 -6.363,2.637 -2.391,0 -4.68,-0.95 -6.367,-2.637 -1.688,-1.688 -2.633,-3.977 -2.633,-6.363 0,-2.387 0.945,-4.676 2.633,-6.364 1.687,-1.687 3.976,-2.636 6.367,-2.636 2.386,0 4.676,0.949 6.363,2.636 1.688,1.688 2.637,3.977 2.637,6.364 z" /><path
         id="path40"
         style="fill:none;stroke:#808080;stroke-width:0.14399999;stroke-linecap:square;stroke-linejoin:miter;stroke-miterlimit:3.25;stroke-dasharray:none;stroke-opacity:0.7"
         d="m 20.594,73.266 c 0,2.386 -0.949,4.675 -2.637,6.363 -1.687,1.687 -3.977,2.637 -6.363,2.637 -2.391,0 -4.68,-0.95 -6.367,-2.637 -1.688,-1.688 -2.633,-3.977 -2.633,-6.363 0,-2.387 0.945,-4.676 2.633,-6.364 1.687,-1.687 3.976,-2.636 6.367,-2.636 2.386,0 4.676,0.949 6.363,2.636 1.688,1.688 2.637,3.977 2.637,6.364 z" /><text
         id="text44"
         style="font-variant:normal;font-size:9.359375px;font-family:CairoFont-0;-inkscape-font-specification:CairoFont-0-0;writing-mode:lr-tb;fill:#000000;fill-opacity:1;fill-rule:nonzero;stroke:none"
         transform="matrix(1,0,0,-1,6.270398,70.266421)"><tspan
           id="tspan42"
           y="0"
           x="0">X</tspan></text>
<text
         id="text48"
         style="font-variant:normal;font-weight:normal;font-size:6.64550781px;font-family:'CMU Serif';-inkscape-font-specification:CMUSerif-Roman;writing-mode:lr-tb;fill:#000000;fill-opacity:1;fill-rule:nonzero;stroke:none"
         transform="matrix(1,0,0,-1,13.2245,69.266421)"><tspan
           id="tspan46"
           y="0"
           x="0">1</tspan></text>
<path
         id="path50"
         style="fill:#f6fff6;fill-opacity:1;fill-rule:nonzero;stroke:#f6fff6;stroke-width:0.03;stroke-linecap:square;stroke-linejoin:miter;stroke-miterlimit:3.25;stroke-dasharray:none;stroke-opacity:1"
         d="m 73.313,66.066 10.8,21.602 10.801,-21.602 z" /><path
         id="path52"
         style="fill:none;stroke:#808080;stroke-width:0.14399999;stroke-linecap:square;stroke-linejoin:miter;stroke-miterlimit:3.25;stroke-dasharray:none;stroke-opacity:0.7"
         d="m 73.313,66.066 10.8,21.602 10.801,-21.602 z" /><text
         id="text56"
         style="font-variant:normal;font-size:9.359375px;font-family:CairoFont-0;-inkscape-font-specification:CairoFont-0-0;writing-mode:lr-tb;fill:#000000;fill-opacity:1;fill-rule:nonzero;stroke:none"
         transform="matrix(1,0,0,-1,78.791391,70.266421)"><tspan
           id="tspan54"
           y="0"
           x="0">Y</tspan></text>
<text
         id="text60"
         style="font-variant:normal;font-weight:normal;font-size:6.64550781px;font-family:'CMU Serif';-inkscape-font-specification:CMUSerif-Roman;writing-mode:lr-tb;fill:#000000;fill-opacity:1;fill-rule:nonzero;stroke:none"
         transform="matrix(1,0,0,-1,85.745493,69.266421)"><tspan
           id="tspan58"
           y="0"
           x="0">1</tspan></text>
<path
         id="path62"
         style="fill:#ffffcd;fill-opacity:1;fill-rule:nonzero;stroke:#ffffcd;stroke-width:0.03;stroke-linecap:square;stroke-linejoin:miter;stroke-miterlimit:3.25;stroke-dasharray:none;stroke-opacity:1"
         d="m 73.313,24.195 10.8,21.602 10.801,-21.602 z" /><path
         id="path64"
         style="fill:none;stroke:#808080;stroke-width:0.14399999;stroke-linecap:square;stroke-linejoin:miter;stroke-miterlimit:3.25;stroke-dasharray:none;stroke-opacity:0.7"
         d="m 73.313,24.195 10.8,21.602 10.801,-21.602 z" /><text
         id="text68"
         style="font-variant:normal;font-size:9.359375px;font-family:CairoFont-0;-inkscape-font-specification:CairoFont-0-0;writing-mode:lr-tb;fill:#000000;fill-opacity:1;fill-rule:nonzero;stroke:none"
         transform="matrix(1,0,0,-1,78.974008,28.396407)"><tspan
           id="tspan66"
           y="0"
           x="0">B</tspan></text>
<text
         id="text72"
         style="font-variant:normal;font-weight:normal;font-size:6.64550781px;font-family:'CMU Serif';-inkscape-font-specification:CMUSerif-Roman;writing-mode:lr-tb;fill:#000000;fill-opacity:1;fill-rule:nonzero;stroke:none"
         transform="matrix(1,0,0,-1,85.562875,27.396407)"><tspan
           id="tspan70"
           y="0"
           x="0">1</tspan></text>
<path
         id="path74"
         style="fill:#cdffff;fill-opacity:1;fill-rule:evenodd;stroke:none"
         d="m 56.852,10.461 c 0,2.387 -0.95,4.676 -2.637,6.363 -1.688,1.688 -3.977,2.637 -6.363,2.637 -2.387,0 -4.676,-0.949 -6.364,-2.637 -1.687,-1.687 -2.636,-3.976 -2.636,-6.363 0,-2.387 0.949,-4.676 2.636,-6.363 1.688,-1.688 3.977,-2.637 6.364,-2.637 2.386,0 4.675,0.949 6.363,2.637 1.687,1.687 2.637,3.976 2.637,6.363 z" /><path
         id="path76"
         style="fill:none;stroke:#808080;stroke-width:0.14399999;stroke-linecap:square;stroke-linejoin:miter;stroke-miterlimit:3.25;stroke-dasharray:none;stroke-opacity:0.7"
         d="m 56.852,10.461 c 0,2.387 -0.95,4.676 -2.637,6.363 -1.688,1.688 -3.977,2.637 -6.363,2.637 -2.387,0 -4.676,-0.949 -6.364,-2.637 -1.687,-1.687 -2.636,-3.976 -2.636,-6.363 0,-2.387 0.949,-4.676 2.636,-6.363 1.688,-1.688 3.977,-2.637 6.364,-2.637 2.386,0 4.675,0.949 6.363,2.637 1.687,1.687 2.637,3.976 2.637,6.363 z" /><text
         id="text80"
         style="font-variant:normal;font-size:9.359375px;font-family:CairoFont-0;-inkscape-font-specification:CairoFont-0-0;writing-mode:lr-tb;fill:#000000;fill-opacity:1;fill-rule:nonzero;stroke:none"
         transform="matrix(1,0,0,-1,43.139293,7.461399)"><tspan
           id="tspan78"
           y="0"
           x="0">Z</tspan></text>
<text
         id="text84"
         style="font-variant:normal;font-weight:normal;font-size:6.64550781px;font-family:'CMU Serif';-inkscape-font-specification:CMUSerif-Roman;writing-mode:lr-tb;fill:#000000;fill-opacity:1;fill-rule:nonzero;stroke:none"
         transform="matrix(1,0,0,-1,48.876598,6.461399)"><tspan
           id="tspan82"
           y="0"
           x="0">1</tspan></text>
<path
         id="path86"
         style="fill:#ffffcd;fill-opacity:1;fill-rule:nonzero;stroke:#ffffcd;stroke-width:0.03;stroke-linecap:square;stroke-linejoin:miter;stroke-miterlimit:3.25;stroke-dasharray:none;stroke-opacity:1"
         d="M 0.793,24.195 11.594,45.797 22.391,24.195 Z" /><path
         id="path88"
         style="fill:none;stroke:#808080;stroke-width:0.14399999;stroke-linecap:square;stroke-linejoin:miter;stroke-miterlimit:3.25;stroke-dasharray:none;stroke-opacity:0.7"
         d="M 0.793,24.195 11.594,45.797 22.391,24.195 Z" /><text
         id="text92"
         style="font-variant:normal;font-size:9.359375px;font-family:CairoFont-0;-inkscape-font-specification:CairoFont-0-0;writing-mode:lr-tb;fill:#000000;fill-opacity:1;fill-rule:nonzero;stroke:none"
         transform="matrix(1,0,0,-1,6.396863,28.396407)"><tspan
           id="tspan90"
           y="0"
           x="0">C</tspan></text>
<text
         id="text96"
         style="font-variant:normal;font-weight:normal;font-size:6.64550781px;font-family:'CMU Serif';-inkscape-font-specification:CMUSerif-Roman;writing-mode:lr-tb;fill:#000000;fill-opacity:1;fill-rule:nonzero;stroke:none"
         transform="matrix(1,0,0,-1,13.098035,27.396407)"><tspan
           id="tspan94"
           y="0"
           x="0">1</tspan></text>
<path
         id="path98"
         style="fill:#ffffcd;fill-opacity:1;fill-rule:nonzero;stroke:#ffffcd;stroke-width:0.03;stroke-linecap:square;stroke-linejoin:miter;stroke-miterlimit:3.25;stroke-dasharray:none;stroke-opacity:1"
         d="m 37.051,116.609 10.801,21.598 10.8,-21.598 z" /><path
         id="path100"
         style="fill:none;stroke:#808080;stroke-width:0.14399999;stroke-linecap:square;stroke-linejoin:miter;stroke-miterlimit:3.25;stroke-dasharray:none;stroke-opacity:0.7"
         d="m 37.051,116.609 10.801,21.598 10.8,-21.598 z" /><text
         id="text104"
         style="font-variant:normal;font-size:9.359375px;font-family:CairoFont-0;-inkscape-font-specification:CairoFont-0-0;writing-mode:lr-tb;fill:#000000;fill-opacity:1;fill-rule:nonzero;stroke:none"
         transform="matrix(1,0,0,-1,42.544078,120.808)"><tspan
           id="tspan102"
           y="0"
           x="0">A</tspan></text>
<text
         id="text108"
         style="font-variant:normal;font-weight:normal;font-size:6.64550781px;font-family:'CMU Serif';-inkscape-font-specification:CMUSerif-Roman;writing-mode:lr-tb;fill:#000000;fill-opacity:1;fill-rule:nonzero;stroke:none"
         transform="matrix(1,0,0,-1,49.49818,119.808)"><tspan
           id="tspan106"
           y="0"
           x="0">2</tspan></text>
<path
         id="path110"
         style="fill:#f6fff6;fill-opacity:1;fill-rule:nonzero;stroke:#f6fff6;stroke-width:0.03;stroke-linecap:square;stroke-linejoin:miter;stroke-miterlimit:3.25;stroke-dasharray:none;stroke-opacity:1"
         d="m 94.246,78.152 10.801,21.602 10.801,-21.602 z" /><path
         id="path112"
         style="fill:none;stroke:#808080;stroke-width:0.14399999;stroke-linecap:square;stroke-linejoin:miter;stroke-miterlimit:3.25;stroke-dasharray:none;stroke-opacity:0.7"
         d="m 94.246,78.152 10.801,21.602 10.801,-21.602 z" /><text
         id="text116"
         style="font-variant:normal;font-size:9.359375px;font-family:CairoFont-0;-inkscape-font-specification:CairoFont-0-0;writing-mode:lr-tb;fill:#000000;fill-opacity:1;fill-rule:nonzero;stroke:none"
         transform="matrix(1,0,0,-1,99.739582,82.353254)"><tspan
           id="tspan114"
           y="0"
           x="0">Y</tspan></text>
<text
         id="text120"
         style="font-variant:normal;font-weight:normal;font-size:6.64550781px;font-family:'CMU Serif';-inkscape-font-specification:CMUSerif-Roman;writing-mode:lr-tb;fill:#000000;fill-opacity:1;fill-rule:nonzero;stroke:none"
         transform="matrix(1,0,0,-1,106.69368,81.353254)"><tspan
           id="tspan118"
           y="0"
           x="0">2</tspan></text>
</g></g></svg>