<?xml version="1.0" encoding="UTF-8" standalone="no"?>
<svg
   xmlns:dc="http://purl.org/dc/elements/1.1/"
   xmlns:cc="http://creativecommons.org/ns#"
   xmlns:rdf="http://www.w3.org/1999/02/22-rdf-syntax-ns#"
   xmlns:svg="http://www.w3.org/2000/svg"
   xmlns="http://www.w3.org/2000/svg"
   viewBox="0 0 212 70.666664"
   height="70.666664"
   width="212"
   xml:space="preserve"
   id="svg2"
   version="1.1"><metadata
     id="metadata8"><rdf:RDF><cc:Work
         rdf:about=""><dc:format>image/svg+xml</dc:format><dc:type
           rdf:resource="http://purl.org/dc/dcmitype/StillImage" /><dc:title></dc:title></cc:Work></rdf:RDF></metadata><defs
     id="defs6" /><g
     transform="matrix(1.3333333,0,0,-1.3333333,0,70.666667)"
     id="g10"><g
       id="g12"><path
         id="path14"
         style="fill:none;stroke:#002671;stroke-width:1.79999995;stroke-linecap:butt;stroke-linejoin:miter;stroke-miterlimit:3.25;stroke-dasharray:none;stroke-opacity:1"
         d="M 57.602,9.727 46.801,24.129 36,38.527" /><path
         id="path16"
         style="fill:#002671;fill-opacity:1;fill-rule:nonzero;stroke:#002671;stroke-width:0.03;stroke-linecap:square;stroke-linejoin:miter;stroke-miterlimit:3.25;stroke-dasharray:none;stroke-opacity:1"
         d="m 47.008,17.535 0.219,0.426 0.55,0.992 0.348,0.567 0.375,0.546 0.379,0.469 0.363,0.336 0.387,0.227 0.551,0.226 0.644,0.219 0.676,0.203 1.184,0.309 0.507,0.117 -11.793,9.156 z" /><path
         id="path18"
         style="fill:none;stroke:#002671;stroke-width:1.79999995;stroke-linecap:butt;stroke-linejoin:miter;stroke-miterlimit:3.25;stroke-dasharray:none;stroke-opacity:1"
         d="M 57.602,9.727 68.398,24.129 79.199,38.527" /><path
         id="path20"
         style="fill:#002671;fill-opacity:1;fill-rule:nonzero;stroke:#002671;stroke-width:0.03;stroke-linecap:square;stroke-linejoin:miter;stroke-miterlimit:3.25;stroke-dasharray:none;stroke-opacity:1"
         d="m 62.129,22.082 0.473,-0.09 1.101,-0.25 0.645,-0.179 0.629,-0.204 0.558,-0.234 0.422,-0.254 0.328,-0.308 0.371,-0.461 0.391,-0.559 0.383,-0.594 0.625,-1.047 0.258,-0.457 5.488,13.883 z" /><path
         id="path22"
         style="fill:none;stroke:#002671;stroke-width:1.79999995;stroke-linecap:butt;stroke-linejoin:miter;stroke-miterlimit:3.25;stroke-dasharray:none;stroke-opacity:1"
         d="M 14.398,9.727 25.199,24.129 36,38.527" /><path
         id="path24"
         style="fill:#002671;fill-opacity:1;fill-rule:nonzero;stroke:#002671;stroke-width:0.03;stroke-linecap:square;stroke-linejoin:miter;stroke-miterlimit:3.25;stroke-dasharray:none;stroke-opacity:1"
         d="m 18.93,22.082 0.468,-0.09 1.106,-0.25 0.644,-0.179 0.629,-0.204 0.555,-0.234 0.426,-0.254 0.324,-0.308 0.375,-0.461 0.391,-0.559 0.379,-0.594 0.628,-1.047 0.258,-0.457 5.489,13.883 z" /><path
         id="path26"
         style="fill:none;stroke:#002671;stroke-width:1.79999995;stroke-linecap:butt;stroke-linejoin:miter;stroke-miterlimit:3.25;stroke-dasharray:none;stroke-opacity:1"
         d="M 144,9.727 133.199,24.129 122.398,38.527" /><path
         id="path28"
         style="fill:#002671;fill-opacity:1;fill-rule:nonzero;stroke:#002671;stroke-width:0.03;stroke-linecap:square;stroke-linejoin:miter;stroke-miterlimit:3.25;stroke-dasharray:none;stroke-opacity:1"
         d="m 133.41,17.535 0.215,0.426 0.551,0.992 0.351,0.567 0.375,0.546 0.379,0.469 0.36,0.336 0.386,0.227 0.551,0.226 0.645,0.219 0.679,0.203 1.18,0.309 0.512,0.117 -11.793,9.156 z" /><path
         id="path30"
         style="fill:none;stroke:#002671;stroke-width:1.79999995;stroke-linecap:butt;stroke-linejoin:miter;stroke-miterlimit:3.25;stroke-dasharray:none;stroke-opacity:1"
         d="m 100.801,9.727 10.801,14.402 10.796,14.398" /><path
         id="path32"
         style="fill:#002671;fill-opacity:1;fill-rule:nonzero;stroke:#002671;stroke-width:0.03;stroke-linecap:square;stroke-linejoin:miter;stroke-miterlimit:3.25;stroke-dasharray:none;stroke-opacity:1"
         d="m 105.328,22.082 0.473,-0.09 1.101,-0.25 0.649,-0.179 0.629,-0.204 0.554,-0.234 0.422,-0.254 0.328,-0.308 0.371,-0.461 0.391,-0.559 0.383,-0.594 0.625,-1.047 0.258,-0.457 5.488,13.883 z" /><path
         id="path34"
         style="fill:none;stroke:#002671;stroke-width:1.79999995;stroke-linecap:butt;stroke-linejoin:miter;stroke-miterlimit:3.25;stroke-dasharray:none;stroke-opacity:1"
         d="M 100.801,9.727 90,24.129 79.199,38.527" /><path
         id="path36"
         style="fill:#002671;fill-opacity:1;fill-rule:nonzero;stroke:#002671;stroke-width:0.03;stroke-linecap:square;stroke-linejoin:miter;stroke-miterlimit:3.25;stroke-dasharray:none;stroke-opacity:1"
         d="m 90.207,17.535 0.219,0.426 0.551,0.992 0.351,0.567 0.371,0.546 0.379,0.469 0.363,0.336 0.387,0.227 0.551,0.226 0.644,0.219 0.676,0.203 1.184,0.309 0.512,0.117 -11.793,9.156 z" /><path
         id="path38"
         style="fill:#cdffff;fill-opacity:1;fill-rule:evenodd;stroke:none"
         d="m 66.602,9.727 c 0,2.386 -0.95,4.675 -2.637,6.367 -1.688,1.687 -3.977,2.633 -6.363,2.633 -2.387,0 -4.676,-0.946 -6.368,-2.633 -1.687,-1.692 -2.632,-3.981 -2.632,-6.367 0,-2.387 0.945,-4.676 2.632,-6.364 1.692,-1.687 3.981,-2.636 6.368,-2.636 2.386,0 4.675,0.949 6.363,2.636 1.687,1.688 2.637,3.977 2.637,6.364 z" /><path
         id="path40"
         style="fill:none;stroke:#808080;stroke-width:0.14399999;stroke-linecap:square;stroke-linejoin:miter;stroke-miterlimit:3.25;stroke-dasharray:none;stroke-opacity:0.7"
         d="m 66.602,9.727 c 0,2.386 -0.95,4.675 -2.637,6.367 -1.688,1.687 -3.977,2.633 -6.363,2.633 -2.387,0 -4.676,-0.946 -6.368,-2.633 -1.687,-1.692 -2.632,-3.981 -2.632,-6.367 0,-2.387 0.945,-4.676 2.632,-6.364 1.692,-1.687 3.981,-2.636 6.368,-2.636 2.386,0 4.675,0.949 6.363,2.636 1.687,1.688 2.637,3.977 2.637,6.364 z" /><text
         id="text44"
         style="font-variant:normal;font-size:9.359375px;font-family:CairoFont-0;-inkscape-font-specification:CairoFont-0-0;writing-mode:lr-tb;fill:#000000;fill-opacity:1;fill-rule:nonzero;stroke:none"
         transform="matrix(1,0,0,-1,52.278398,6.728)"><tspan
           id="tspan42"
           y="0"
           x="0">X</tspan></text>
<text
         id="text48"
         style="font-variant:normal;font-weight:normal;font-size:6.64550781px;font-family:'CMU Serif';-inkscape-font-specification:CMUSerif-Roman;writing-mode:lr-tb;fill:#000000;fill-opacity:1;fill-rule:nonzero;stroke:none"
         transform="matrix(1,0,0,-1,59.2325,5.728)"><tspan
           id="tspan46"
           y="0"
           x="0">1</tspan></text>
<path
         id="path50"
         style="fill:#ffffcd;fill-opacity:1;fill-rule:nonzero;stroke:#ffffcd;stroke-width:0.03;stroke-linecap:square;stroke-linejoin:miter;stroke-miterlimit:3.25;stroke-dasharray:none;stroke-opacity:1"
         d="M 25.199,31.328 36,52.93 46.801,31.328 Z" /><path
         id="path52"
         style="fill:none;stroke:#808080;stroke-width:0.14399999;stroke-linecap:square;stroke-linejoin:miter;stroke-miterlimit:3.25;stroke-dasharray:none;stroke-opacity:0.7"
         d="M 25.199,31.328 36,52.93 46.801,31.328 Z" /><text
         id="text56"
         style="font-variant:normal;font-size:9.359375px;font-family:CairoFont-0;-inkscape-font-specification:CairoFont-0-0;writing-mode:lr-tb;fill:#000000;fill-opacity:1;fill-rule:nonzero;stroke:none"
         transform="matrix(1,0,0,-1,30.691582,35.528)"><tspan
           id="tspan54"
           y="0"
           x="0">A</tspan></text>
<text
         id="text60"
         style="font-variant:normal;font-weight:normal;font-size:6.64550781px;font-family:'CMU Serif';-inkscape-font-specification:CMUSerif-Roman;writing-mode:lr-tb;fill:#000000;fill-opacity:1;fill-rule:nonzero;stroke:none"
         transform="matrix(1,0,0,-1,37.645684,34.528)"><tspan
           id="tspan58"
           y="0"
           x="0">2</tspan></text>
<path
         id="path62"
         style="fill:#cdffff;fill-opacity:1;fill-rule:evenodd;stroke:none"
         d="m 23.398,9.727 c 0,2.386 -0.945,4.675 -2.632,6.367 -1.692,1.687 -3.981,2.633 -6.368,2.633 -2.386,0 -4.675,-0.946 -6.363,-2.633 -1.687,-1.692 -2.637,-3.981 -2.637,-6.367 0,-2.387 0.95,-4.676 2.637,-6.364 1.688,-1.687 3.977,-2.636 6.363,-2.636 2.387,0 4.676,0.949 6.368,2.636 1.687,1.688 2.632,3.977 2.632,6.364 z" /><path
         id="path64"
         style="fill:none;stroke:#808080;stroke-width:0.14399999;stroke-linecap:square;stroke-linejoin:miter;stroke-miterlimit:3.25;stroke-dasharray:none;stroke-opacity:0.7"
         d="m 23.398,9.727 c 0,2.386 -0.945,4.675 -2.632,6.367 -1.692,1.687 -3.981,2.633 -6.368,2.633 -2.386,0 -4.675,-0.946 -6.363,-2.633 -1.687,-1.692 -2.637,-3.981 -2.637,-6.367 0,-2.387 0.95,-4.676 2.637,-6.364 1.688,-1.687 3.977,-2.636 6.363,-2.636 2.387,0 4.676,0.949 6.368,2.636 1.687,1.688 2.632,3.977 2.632,6.364 z" /><text
         id="text68"
         style="font-variant:normal;font-size:9.359375px;font-family:CairoFont-0;-inkscape-font-specification:CairoFont-0-0;writing-mode:lr-tb;fill:#000000;fill-opacity:1;fill-rule:nonzero;stroke:none"
         transform="matrix(1,0,0,-1,9.091582,6.728)"><tspan
           id="tspan66"
           y="0"
           x="0">Y</tspan></text>
<text
         id="text72"
         style="font-variant:normal;font-weight:normal;font-size:6.64550781px;font-family:'CMU Serif';-inkscape-font-specification:CMUSerif-Roman;writing-mode:lr-tb;fill:#000000;fill-opacity:1;fill-rule:nonzero;stroke:none"
         transform="matrix(1,0,0,-1,16.045684,5.728)"><tspan
           id="tspan70"
           y="0"
           x="0">2</tspan></text>
<path
         id="path74"
         style="fill:#cdffff;fill-opacity:1;fill-rule:evenodd;stroke:none"
         d="m 153,9.727 c 0,2.386 -0.949,4.675 -2.637,6.367 -1.687,1.687 -3.976,2.633 -6.363,2.633 -2.387,0 -4.676,-0.946 -6.363,-2.633 C 135.949,14.402 135,12.113 135,9.727 c 0,-2.387 0.949,-4.676 2.637,-6.364 1.687,-1.687 3.976,-2.636 6.363,-2.636 2.387,0 4.676,0.949 6.363,2.636 C 152.051,5.051 153,7.34 153,9.727 Z" /><path
         id="path76"
         style="fill:none;stroke:#808080;stroke-width:0.14399999;stroke-linecap:square;stroke-linejoin:miter;stroke-miterlimit:3.25;stroke-dasharray:none;stroke-opacity:0.7"
         d="m 153,9.727 c 0,2.386 -0.949,4.675 -2.637,6.367 -1.687,1.687 -3.976,2.633 -6.363,2.633 -2.387,0 -4.676,-0.946 -6.363,-2.633 C 135.949,14.402 135,12.113 135,9.727 c 0,-2.387 0.949,-4.676 2.637,-6.364 1.687,-1.687 3.976,-2.636 6.363,-2.636 2.387,0 4.676,0.949 6.363,2.636 C 152.051,5.051 153,7.34 153,9.727 Z" /><text
         id="text80"
         style="font-variant:normal;font-size:9.359375px;font-family:CairoFont-0;-inkscape-font-specification:CairoFont-0-0;writing-mode:lr-tb;fill:#000000;fill-opacity:1;fill-rule:nonzero;stroke:none"
         transform="matrix(1,0,0,-1,138.6784,6.728)"><tspan
           id="tspan78"
           y="0"
           x="0">Y</tspan></text>
<text
         id="text84"
         style="font-variant:normal;font-weight:normal;font-size:6.64550781px;font-family:'CMU Serif';-inkscape-font-specification:CMUSerif-Roman;writing-mode:lr-tb;fill:#000000;fill-opacity:1;fill-rule:nonzero;stroke:none"
         transform="matrix(1,0,0,-1,145.6325,5.728)"><tspan
           id="tspan82"
           y="0"
           x="0">1</tspan></text>
<path
         id="path86"
         style="fill:#ffffcd;fill-opacity:1;fill-rule:nonzero;stroke:#ffffcd;stroke-width:0.03;stroke-linecap:square;stroke-linejoin:miter;stroke-miterlimit:3.25;stroke-dasharray:none;stroke-opacity:1"
         d="M 111.602,31.328 122.398,52.93 133.199,31.328 Z" /><path
         id="path88"
         style="fill:none;stroke:#808080;stroke-width:0.14399999;stroke-linecap:square;stroke-linejoin:miter;stroke-miterlimit:3.25;stroke-dasharray:none;stroke-opacity:0.7"
         d="M 111.602,31.328 122.398,52.93 133.199,31.328 Z" /><text
         id="text92"
         style="font-variant:normal;font-size:9.359375px;font-family:CairoFont-0;-inkscape-font-specification:CairoFont-0-0;writing-mode:lr-tb;fill:#000000;fill-opacity:1;fill-rule:nonzero;stroke:none"
         transform="matrix(1,0,0,-1,117.26102,35.528)"><tspan
           id="tspan90"
           y="0"
           x="0">B</tspan></text>
<text
         id="text96"
         style="font-variant:normal;font-weight:normal;font-size:6.64550781px;font-family:'CMU Serif';-inkscape-font-specification:CMUSerif-Roman;writing-mode:lr-tb;fill:#000000;fill-opacity:1;fill-rule:nonzero;stroke:none"
         transform="matrix(1,0,0,-1,123.84988,34.528)"><tspan
           id="tspan94"
           y="0"
           x="0">1</tspan></text>
<path
         id="path98"
         style="fill:#cdffff;fill-opacity:1;fill-rule:evenodd;stroke:none"
         d="m 109.801,9.727 c 0,2.386 -0.949,4.675 -2.637,6.367 -1.687,1.687 -3.976,2.633 -6.363,2.633 -2.387,0 -4.676,-0.946 -6.363,-2.633 -1.688,-1.692 -2.637,-3.981 -2.637,-6.367 0,-2.387 0.949,-4.676 2.637,-6.364 1.687,-1.687 3.976,-2.636 6.363,-2.636 2.387,0 4.676,0.949 6.363,2.636 1.688,1.688 2.637,3.977 2.637,6.364 z" /><path
         id="path100"
         style="fill:none;stroke:#808080;stroke-width:0.14399999;stroke-linecap:square;stroke-linejoin:miter;stroke-miterlimit:3.25;stroke-dasharray:none;stroke-opacity:0.7"
         d="m 109.801,9.727 c 0,2.386 -0.949,4.675 -2.637,6.367 -1.687,1.687 -3.976,2.633 -6.363,2.633 -2.387,0 -4.676,-0.946 -6.363,-2.633 -1.688,-1.692 -2.637,-3.981 -2.637,-6.367 0,-2.387 0.949,-4.676 2.637,-6.364 1.687,-1.687 3.976,-2.636 6.363,-2.636 2.387,0 4.676,0.949 6.363,2.636 1.688,1.688 2.637,3.977 2.637,6.364 z" /><text
         id="text104"
         style="font-variant:normal;font-size:9.359375px;font-family:CairoFont-0;-inkscape-font-specification:CairoFont-0-0;writing-mode:lr-tb;fill:#000000;fill-opacity:1;fill-rule:nonzero;stroke:none"
         transform="matrix(1,0,0,-1,96.086797,6.728)"><tspan
           id="tspan102"
           y="0"
           x="0">Z</tspan></text>
<text
         id="text108"
         style="font-variant:normal;font-weight:normal;font-size:6.64550781px;font-family:'CMU Serif';-inkscape-font-specification:CMUSerif-Roman;writing-mode:lr-tb;fill:#000000;fill-opacity:1;fill-rule:nonzero;stroke:none"
         transform="matrix(1,0,0,-1,101.8241,5.728)"><tspan
           id="tspan106"
           y="0"
           x="0">1</tspan></text>
<path
         id="path110"
         style="fill:#ffffcd;fill-opacity:1;fill-rule:nonzero;stroke:#ffffcd;stroke-width:0.03;stroke-linecap:square;stroke-linejoin:miter;stroke-miterlimit:3.25;stroke-dasharray:none;stroke-opacity:1"
         d="M 68.398,31.328 79.199,52.93 90,31.328 Z" /><path
         id="path112"
         style="fill:none;stroke:#808080;stroke-width:0.14399999;stroke-linecap:square;stroke-linejoin:miter;stroke-miterlimit:3.25;stroke-dasharray:none;stroke-opacity:0.7"
         d="M 68.398,31.328 79.199,52.93 90,31.328 Z" /><text
         id="text116"
         style="font-variant:normal;font-size:9.359375px;font-family:CairoFont-0;-inkscape-font-specification:CairoFont-0-0;writing-mode:lr-tb;fill:#000000;fill-opacity:1;fill-rule:nonzero;stroke:none"
         transform="matrix(1,0,0,-1,74.004863,35.528)"><tspan
           id="tspan114"
           y="0"
           x="0">C</tspan></text>
<text
         id="text120"
         style="font-variant:normal;font-weight:normal;font-size:6.64550781px;font-family:'CMU Serif';-inkscape-font-specification:CMUSerif-Roman;writing-mode:lr-tb;fill:#000000;fill-opacity:1;fill-rule:nonzero;stroke:none"
         transform="matrix(1,0,0,-1,80.706035,34.528)"><tspan
           id="tspan118"
           y="0"
           x="0">1</tspan></text>
</g></g></svg>